<svg id="visual" viewBox="0 0 960 540" width="960" height="540" xmlns="http://www.w3.org/2000/svg" xmlns:xlink="http://www.w3.org/1999/xlink" version="1.1"><rect x="0" y="0" width="960" height="540" fill="#f9f4f5"></rect><path d="M0 270L22.8 283.5C45.7 297 91.3 324 137 327.5C182.7 331 228.3 311 274 319.2C319.7 327.3 365.3 363.7 411.2 352.3C457 341 503 282 548.8 274.5C594.7 267 640.3 311 686 337C731.7 363 777.3 371 823 365.5C868.7 360 914.3 341 937.2 331.5L960 322L960 541L937.2 541C914.3 541 868.7 541 823 541C777.3 541 731.7 541 686 541C640.3 541 594.7 541 548.8 541C503 541 457 541 411.2 541C365.3 541 319.7 541 274 541C228.3 541 182.7 541 137 541C91.3 541 45.7 541 22.8 541L0 541Z" fill="#ffb7c5"></path></svg>