<svg id="visual" viewBox="0 0 960 540" width="960" height="540" xmlns="http://www.w3.org/2000/svg" xmlns:xlink="http://www.w3.org/1999/xlink" version="1.1"><rect x="0" y="0" width="960" height="540" fill="#f9f4f5"></rect><path d="M0 321L20 306.5C40 292 80 263 120 233.7C160 204.3 200 174.7 240 191C280 207.3 320 269.7 360 305.7C400 341.7 440 351.3 480 323.2C520 295 560 229 600 224.2C640 219.3 680 275.7 720 293.5C760 311.3 800 290.7 840 278.3C880 266 920 262 940 260L960 258L960 0L940 0C920 0 880 0 840 0C800 0 760 0 720 0C680 0 640 0 600 0C560 0 520 0 480 0C440 0 400 0 360 0C320 0 280 0 240 0C200 0 160 0 120 0C80 0 40 0 20 0L0 0Z" fill="#ffb7c5"></path></svg>